<svg width="120" height="120" viewBox="0 0 120 120" fill="none" xmlns="http://www.w3.org/2000/svg">
  <!-- Dark background circle -->
  <circle cx="60" cy="60" r="60" fill="#1a1a1a"/>

  <!-- Brain shape - center -->
  <path d="M60 35c-8 0-14 6-14 14c0 4 2 7 4 10c-1 2-2 4-2 6c0 5 4 9 9 9c2 0 4-1 6-2c2 1 4 2 6 2c5 0 9-4 9-9c0-2-1-4-2-6c2-3 4-6 4-10c0-8-6-14-14-14"
        fill="url(#brainGradient)"
        opacity="0.95"/>

  <!-- Brain details -->
  <path d="M52 42c-2 1-3 3-3 5c0 1 0 2 1 3"
        stroke="#ff8c00"
        stroke-width="1.5"
        stroke-linecap="round"
        fill="none"
        opacity="0.6"/>
  <path d="M68 42c2 1 3 3 3 5c0 1 0 2-1 3"
        stroke="#ff8c00"
        stroke-width="1.5"
        stroke-linecap="round"
        fill="none"
        opacity="0.6"/>
  <path d="M57 50c-1 2-1 4 0 6"
        stroke="#ff8c00"
        stroke-width="1.5"
        stroke-linecap="round"
        fill="none"
        opacity="0.5"/>
  <path d="M63 50c1 2 1 4 0 6"
        stroke="#ff8c00"
        stroke-width="1.5"
        stroke-linecap="round"
        fill="none"
        opacity="0.5"/>

  <!-- Orbit ring 1 (ellipse) -->
  <ellipse cx="60" cy="60" rx="35" ry="18"
           stroke="url(#orbitGradient1)"
           stroke-width="1.5"
           fill="none"
           opacity="0.8"
           transform="rotate(-30 60 60)"/>

  <!-- Orbit ring 2 (ellipse) -->
  <ellipse cx="60" cy="60" rx="35" ry="18"
           stroke="url(#orbitGradient2)"
           stroke-width="1.5"
           fill="none"
           opacity="0.8"
           transform="rotate(30 60 60)"/>

  <!-- Orbit ring 3 (circle) -->
  <circle cx="60" cy="60" r="28"
          stroke="url(#orbitGradient3)"
          stroke-width="1.5"
          fill="none"
          opacity="0.7"/>

  <!-- Small satellite sphere on orbit -->
  <circle cx="88" cy="60" r="5" fill="url(#satelliteGradient)">
    <animateTransform
      attributeName="transform"
      attributeType="XML"
      type="rotate"
      from="0 60 60"
      to="360 60 60"
      dur="8s"
      repeatCount="indefinite"/>
  </circle>

  <!-- Glow effect behind brain -->
  <circle cx="60" cy="60" r="20" fill="url(#glowGradient)" opacity="0.3"/>

  <!-- Gradients -->
  <defs>
    <!-- Brain gradient (orange to golden) -->
    <radialGradient id="brainGradient" cx="50%" cy="40%">
      <stop offset="0%" style="stop-color:#ffa500;stop-opacity:1" />
      <stop offset="60%" style="stop-color:#ff8c00;stop-opacity:1" />
      <stop offset="100%" style="stop-color:#ff7700;stop-opacity:1" />
    </radialGradient>

    <!-- Orbit gradients -->
    <linearGradient id="orbitGradient1" x1="0%" y1="0%" x2="100%" y2="0%">
      <stop offset="0%" style="stop-color:#ff8c00;stop-opacity:0.2" />
      <stop offset="50%" style="stop-color:#ffa500;stop-opacity:0.8" />
      <stop offset="100%" style="stop-color:#ff8c00;stop-opacity:0.2" />
    </linearGradient>

    <linearGradient id="orbitGradient2" x1="0%" y1="0%" x2="100%" y2="0%">
      <stop offset="0%" style="stop-color:#ff8c00;stop-opacity:0.2" />
      <stop offset="50%" style="stop-color:#ffa500;stop-opacity:0.8" />
      <stop offset="100%" style="stop-color:#ff8c00;stop-opacity:0.2" />
    </linearGradient>

    <linearGradient id="orbitGradient3" x1="0%" y1="0%" x2="0%" y2="100%">
      <stop offset="0%" style="stop-color:#ff8c00;stop-opacity:0.3" />
      <stop offset="50%" style="stop-color:#ffa500;stop-opacity:0.9" />
      <stop offset="100%" style="stop-color:#ff8c00;stop-opacity:0.3" />
    </linearGradient>

    <!-- Satellite gradient -->
    <radialGradient id="satelliteGradient" cx="35%" cy="35%">
      <stop offset="0%" style="stop-color:#ffcc80;stop-opacity:1" />
      <stop offset="60%" style="stop-color:#ffa500;stop-opacity:1" />
      <stop offset="100%" style="stop-color:#ff8c00;stop-opacity:1" />
    </radialGradient>

    <!-- Glow gradient -->
    <radialGradient id="glowGradient">
      <stop offset="0%" style="stop-color:#ffa500;stop-opacity:0.8" />
      <stop offset="100%" style="stop-color:#ff8c00;stop-opacity:0" />
    </radialGradient>
  </defs>
</svg>
