<svg width="120" height="120" viewBox="0 0 120 120" fill="none" xmlns="http://www.w3.org/2000/svg">
  <!-- Background circle -->
  <circle cx="60" cy="60" r="60" fill="url(#gradient)" />

  <!-- Brain shape -->
  <path d="M45 35c-8 0-15 7-15 15s4 12 8 16c2 2 4 4 4 7v12c0 3 2 5 5 5h10c3 0 5-2 5-5V73c0-3 2-5 4-7c4-4 8-9 8-16s-7-15-15-15c-2 0-4 0-6 1c-2-1-4-1-6-1z" fill="white" opacity="0.9"/>

  <!-- Brain details -->
  <path d="M42 45c-2 2-2 5 0 7s5 2 7 0s2-5 0-7s-5-2-7 0z" fill="#007aff" opacity="0.6"/>
  <path d="M52 42c-1 1-1 3 0 4s3 1 4 0s1-3 0-4s-3-1-4 0z" fill="#007aff" opacity="0.6"/>
  <path d="M62 45c-2 2-2 5 0 7s5 2 7 0s2-5 0-7s-5-2-7 0z" fill="#007aff" opacity="0.6"/>

  <!-- Speech bubble -->
  <ellipse cx="78" cy="45" rx="18" ry="12" fill="white" opacity="0.95"/>
  <path d="M69 52l-4 6l8-3z" fill="white" opacity="0.95"/>

  <!-- Lightbulb inside speech bubble -->
  <circle cx="78" cy="42" r="4" fill="#007aff"/>
  <rect x="76" y="46" width="4" height="2" rx="1" fill="#007aff" opacity="0.8"/>
  <rect x="77" y="48" width="2" height="1" rx="0.5" fill="#007aff" opacity="0.6"/>

  <!-- Sparkles for "eureka" moment -->
  <circle cx="90" cy="30" r="1.5" fill="#FFD700"/>
  <circle cx="95" cy="35" r="1" fill="#FFD700" opacity="0.8"/>
  <circle cx="85" cy="25" r="1" fill="#FFD700" opacity="0.6"/>

  <!-- Gradient definition -->
  <defs>
    <linearGradient id="gradient" x1="0%" y1="0%" x2="100%" y2="100%">
      <stop offset="0%" style="stop-color:#007aff;stop-opacity:1" />
      <stop offset="100%" style="stop-color:#0056cc;stop-opacity:1" />
    </linearGradient>
  </defs>
</svg>